// Skakal pes
int melody1[] = {
  8, NOTE_G3,
  8, NOTE_G3,
  8, NOTE_E3,
  8, 0,
  
  8, NOTE_G3,
  8, NOTE_G3,
  8, NOTE_E3,
  8, 0,
  
  8, NOTE_G3,
  8, NOTE_G3,
  8, NOTE_A3,
  8, NOTE_G3,
  
  4, NOTE_G3,
  4, NOTE_F3,
  
  8, NOTE_F3,
  8, NOTE_F3,
  8, NOTE_D3,
  8, 0,
  
  8, NOTE_F3,
  8, NOTE_F3,
  8, NOTE_D3,
  8, 0,
  
  8, NOTE_F3,
  8, NOTE_F3,
  8, NOTE_G3,
  8, NOTE_F3,
  
  4, NOTE_F3,
  4, NOTE_E3
};

// Ja mam kone
int melody2[] = {
  8, NOTE_G3,
  8, NOTE_G3,
  8, NOTE_FS3,
  8, NOTE_D3,
  8, NOTE_G3,
  8, NOTE_G3,
  8, NOTE_FS3,
  8, NOTE_D3,

  8, NOTE_E3,
  8, NOTE_E3,
  8, NOTE_FS3,
  8, NOTE_FS3,
  2, NOTE_G3,

  8, NOTE_G3,
  8, NOTE_G3,
  8, NOTE_FS3,
  8, NOTE_D3,
  8, NOTE_G3,
  8, NOTE_G3,
  8, NOTE_FS3,
  8, NOTE_D3,

  8, NOTE_E3,
  8, NOTE_E3,
  8, NOTE_FS3,
  8, NOTE_FS3,
  2, NOTE_G3,

  8, NOTE_G3,
  8, NOTE_B3,
  8, NOTE_B3,
  8, NOTE_D4,
  8, NOTE_D4,
  8, NOTE_C4,
  4, NOTE_A3,
  
  8, NOTE_G3,
  8, NOTE_B3,
  8, NOTE_B3,
  8, NOTE_D4,
  8, NOTE_D4,
  8, NOTE_C4,
  4, NOTE_A3,

  8, NOTE_G3,
  8, NOTE_G3,
  8, NOTE_FS3,
  8, NOTE_D3,
  8, NOTE_G3,
  8, NOTE_G3,
  8, NOTE_FS3,
  8, NOTE_D3,

  8, NOTE_E3,
  8, NOTE_E3,
  8, NOTE_FS3,
  8, NOTE_FS3,
  2, NOTE_G3,
};

// Holka modrooka
int melody3[] = {
  4, NOTE_FS3,
  4, NOTE_B3,
  8, NOTE_A3,
  8, NOTE_A3,
  8, NOTE_FS3,
  8, NOTE_A3,
  8, NOTE_G3,
  8, NOTE_G3,
  8, NOTE_E3,
  8, NOTE_G3,
  8, NOTE_A3,
  8, NOTE_A3,
  8, NOTE_FS3,
  8, NOTE_A3,
  8, 0,
  4, NOTE_FS3,
  4, NOTE_B3,
  8, NOTE_A3,
  8, NOTE_A3,
  8, NOTE_FS3,
  8, NOTE_A3,
  8, NOTE_G3,
  8, NOTE_G3,
  8, NOTE_E3,
  8, NOTE_G3,
  4, NOTE_FS3,
  4, 0,
  8, NOTE_G3,
  8, NOTE_G3,
  8, NOTE_E3,
  8, NOTE_G3,
  8, NOTE_A3,
  8, NOTE_A3,
  8, NOTE_FS3,
  8, NOTE_A3,
  8, NOTE_G3,
  8, NOTE_G3,
  8, NOTE_E3,
  8, NOTE_G3,
  8, NOTE_A3,
  8, NOTE_A3,
  8, NOTE_FS3,
  8, NOTE_A3,
  8, 0,
  4, NOTE_FS3,
  4, NOTE_B3,
  8, NOTE_A3,
  8, NOTE_A3,
  8, NOTE_FS3,
  8, NOTE_A3,
  8, NOTE_G3,
  8, NOTE_G3,
  8, NOTE_E3,
  8, NOTE_G3,
  4, NOTE_FS3,
  4, 0,
  8, NOTE_G3,
  8, NOTE_G3,
  8, NOTE_E3,
  8, NOTE_G3,
  8, NOTE_A3,
  8, NOTE_A3,
  8, NOTE_FS3,
  8, NOTE_A3,
  8, NOTE_G3,
  8, NOTE_G3,
  8, NOTE_E3,
  8, NOTE_G3,
  8, NOTE_A3,
  8, NOTE_A3,
  8, NOTE_FS3,
  8, NOTE_A3,
  8, 0,
  4, NOTE_FS3,
  4, NOTE_B3,
  8, NOTE_A3,
  8, NOTE_A3,
  8, NOTE_FS3,
  8, NOTE_A3,
  8, NOTE_G3,
  8, NOTE_G3,
  8, NOTE_E3,
  8, NOTE_G3,
  4, NOTE_FS3,
};

// Ja do lesa nepojedu
int melody4[] = {
  8, NOTE_C3,
  8, NOTE_E3,
  4, NOTE_G3,
  4, NOTE_G3,
  8, NOTE_C4,
  8, NOTE_C4,
  4, NOTE_G3,
  4, NOTE_G3,
  8, NOTE_F3,
  8, NOTE_F3,
  4, NOTE_D3,
  4, NOTE_D3,
  8, NOTE_C3,
  8, NOTE_E3,
  8, NOTE_G3,
  8, 0,
  4, 0,
  8, NOTE_C3,
  8, NOTE_E3,
  4, NOTE_G3,
  4, NOTE_G3,
  8, NOTE_C4,
  8, NOTE_C4,
  4, NOTE_G3,
  4, NOTE_G3,
  8, NOTE_F3,
  8, NOTE_F3,
  4, NOTE_D3,
  4, NOTE_D3,
  8, NOTE_C3,
  8, NOTE_E3,
  8, NOTE_C3,
  8, 0,
  4, 0,
};
